<?xml version="1.0" encoding="UTF-8"?><!DOCTYPE svg PUBLIC "-//W3C//DTD SVG 1.1//EN" "http://www.w3.org/Graphics/SVG/1.1/DTD/svg11.dtd"><svg xmlns="http://www.w3.org/2000/svg"><symbol id="icon-close" viewBox="0 0 32 32">
    <path d="M17.459 16.014l8.239-8.194a.992.992 0 0 0 0-1.414 1.016 1.016 0 0 0-1.428 0l-8.232 8.187L7.73 6.284a1.009 1.009 0 0 0-1.428 0 1.015 1.015 0 0 0 0 1.432l8.302 8.303-8.332 8.286a.994.994 0 0 0 0 1.414 1.016 1.016 0 0 0 1.428 0l8.325-8.279 8.275 8.276a1.009 1.009 0 0 0 1.428 0 1.015 1.015 0 0 0 0-1.432l-8.269-8.27z"/>
</symbol><symbol id="icon-facebook" viewBox="0 0 10 19">
    <title>
        facebook
    </title>
    <path d="M9.766.157v2.946H8.014c-.64 0-1.071.134-1.295.402-.223.268-.335.67-.335 1.205v2.11h3.27l-.435 3.303H6.384v8.471H2.97v-8.47H.123V6.82H2.97V4.387c0-1.384.387-2.457 1.161-3.22C4.904.404 5.934.023 7.222.023c1.093 0 1.941.045 2.544.134z" fill-rule="evenodd"/>
</symbol><symbol id="icon-left" viewBox="0 0 512 512">
    <path d="M327.3 98.9l-2.1 1.8-156.5 136c-5.3 4.6-8.6 11.5-8.6 19.2 0 7.7 3.4 14.6 8.6 19.2L324.9 411l2.6 2.3c2.5 1.7 5.5 2.7 8.7 2.7 8.7 0 15.8-7.4 15.8-16.6V112.6c0-9.2-7.1-16.6-15.8-16.6-3.3 0-6.4 1.1-8.9 2.9z"/>
</symbol><symbol id="icon-right" viewBox="0 0 512 512">
    <path d="M184.7 413.1l2.1-1.8 156.5-136c5.3-4.6 8.6-11.5 8.6-19.2 0-7.7-3.4-14.6-8.6-19.2L187.1 101l-2.6-2.3C182 97 179 96 175.8 96c-8.7 0-15.8 7.4-15.8 16.6v286.8c0 9.2 7.1 16.6 15.8 16.6 3.3 0 6.4-1.1 8.9-2.9z"/>
</symbol></svg>